<svg xmlns="http://www.w3.org/2000/svg" xmlns:xlink="http://www.w3.org/1999/xlink" width="1920" zoomAndPan="magnify" viewBox="0 0 1440 809.999993" height="1080" preserveAspectRatio="xMidYMid meet" version="1.0"><defs><clipPath id="5444c8f9c1"><path d="M 654.375 22.722656 L 798.417969 22.722656 L 798.417969 159.5625 L 654.375 159.5625 Z M 654.375 22.722656 " clip-rule="nonzero"/></clipPath><clipPath id="bb3dfd9fe7"><path d="M 864.710938 91.140625 L 967.585938 91.140625 L 967.585938 188.871094 L 864.710938 188.871094 Z M 864.710938 91.140625 " clip-rule="nonzero"/></clipPath><clipPath id="45a723e3e9"><path d="M 472.707031 91.140625 L 575.582031 91.140625 L 575.582031 188.871094 L 472.707031 188.871094 Z M 472.707031 91.140625 " clip-rule="nonzero"/></clipPath><clipPath id="7cd01753f2"><path d="M 54 329 L 1383 329 L 1383 788.410156 L 54 788.410156 Z M 54 329 " clip-rule="nonzero"/></clipPath></defs><g clip-path="url(#5444c8f9c1)"><path fill="#125295" d="M 728.5625 24.0625 L 748.890625 65.214844 C 749.199219 65.933594 749.921875 66.449219 750.746094 66.550781 L 796.25 73.136719 C 798.210938 73.445312 799.039062 75.914062 797.59375 77.253906 L 764.675781 109.25 C 764.058594 109.765625 763.851562 110.585938 763.957031 111.410156 L 771.695312 156.679688 C 772.003906 158.632812 769.941406 160.175781 768.1875 159.25 L 727.429688 137.851562 C 726.707031 137.4375 725.878906 137.4375 725.160156 137.851562 L 684.402344 159.25 C 682.648438 160.175781 680.582031 158.632812 680.894531 156.679688 L 688.632812 111.410156 C 688.734375 110.585938 688.527344 109.867188 687.910156 109.25 L 655.097656 77.253906 C 653.652344 75.8125 654.476562 73.445312 656.4375 73.136719 L 701.941406 66.550781 C 702.769531 66.449219 703.386719 65.933594 703.800781 65.214844 L 724.125 24.0625 C 725.054688 22.3125 727.636719 22.3125 728.5625 24.0625 Z M 728.5625 24.0625 " fill-opacity="1" fill-rule="nonzero"/></g><g clip-path="url(#bb3dfd9fe7)"><path fill="#125295" d="M 917.695312 92.097656 L 932.214844 121.488281 C 932.433594 122.003906 932.949219 122.371094 933.539062 122.445312 L 966.039062 127.148438 C 967.4375 127.367188 968.027344 129.132812 966.996094 130.085938 L 943.488281 152.9375 C 943.046875 153.304688 942.898438 153.894531 942.972656 154.480469 L 948.5 186.8125 C 948.71875 188.207031 947.246094 189.308594 945.992188 188.648438 L 916.886719 173.363281 C 916.371094 173.070312 915.78125 173.070312 915.265625 173.363281 L 886.15625 188.648438 C 884.902344 189.308594 883.429688 188.207031 883.652344 186.8125 L 889.175781 154.480469 C 889.25 153.894531 889.105469 153.378906 888.660156 152.9375 L 865.226562 130.085938 C 864.195312 129.058594 864.785156 127.367188 866.1875 127.148438 L 898.683594 122.445312 C 899.273438 122.371094 899.714844 122.003906 900.011719 121.488281 L 914.527344 92.097656 C 915.191406 90.851562 917.03125 90.851562 917.695312 92.097656 Z M 917.695312 92.097656 " fill-opacity="1" fill-rule="nonzero"/></g><g clip-path="url(#45a723e3e9)"><path fill="#125295" d="M 525.691406 92.097656 L 540.210938 121.488281 C 540.429688 122.003906 540.945312 122.371094 541.535156 122.445312 L 574.035156 127.148438 C 575.433594 127.367188 576.023438 129.132812 574.992188 130.085938 L 551.484375 152.9375 C 551.042969 153.304688 550.894531 153.894531 550.96875 154.480469 L 556.496094 186.8125 C 556.714844 188.207031 555.242188 189.308594 553.988281 188.648438 L 524.882812 173.363281 C 524.367188 173.070312 523.777344 173.070312 523.261719 173.363281 L 494.152344 188.648438 C 492.898438 189.308594 491.425781 188.207031 491.648438 186.8125 L 497.175781 154.480469 C 497.246094 153.894531 497.101562 153.378906 496.660156 152.9375 L 473.226562 130.085938 C 472.191406 129.058594 472.78125 127.367188 474.183594 127.148438 L 506.679688 122.445312 C 507.269531 122.371094 507.710938 122.003906 508.007812 121.488281 L 522.523438 92.097656 C 523.1875 90.851562 525.03125 90.851562 525.691406 92.097656 Z M 525.691406 92.097656 " fill-opacity="1" fill-rule="nonzero"/></g><g clip-path="url(#7cd01753f2)"><path fill="#cd9832" d="M 1353.425781 1522.980469 C 1185.761719 1465.035156 999.382812 1488.667969 851.320312 1587.519531 L 732.847656 1666.628906 L 732.847656 776.003906 L 833.730469 701.277344 C 953.429688 612.59375 1100.863281 577.859375 1245.53125 602.65625 C 1246.332031 602.859375 1247.148438 603.007812 1248.007812 603.078125 C 1265.582031 606.171875 1283.113281 610.097656 1300.542969 614.960938 L 1353.425781 629.714844 Z M 269.160156 1491.820312 C 206.578125 1491.820312 143.773438 1502.109375 83.378906 1522.980469 L 83.378906 629.714844 L 136.277344 614.960938 C 153.734375 610.097656 171.296875 606.171875 188.886719 603.078125 C 189.671875 603.007812 190.429688 602.875 191.175781 602.671875 C 335.898438 577.859375 483.378906 612.566406 603.105469 701.277344 L 703.988281 776.003906 L 703.988281 1666.628906 L 585.5 1587.519531 C 490.757812 1524.277344 380.339844 1491.820312 269.160156 1491.820312 Z M 202.039062 475.691406 C 276.453125 485.703125 591.539062 538.773438 686.777344 727.316406 L 620.285156 678.054688 C 498.460938 587.8125 349.402344 550.636719 202.039062 571.726562 Z M 353.675781 364.125 C 419.335938 388.703125 638.53125 484.140625 692.085938 679.324219 C 615.808594 567.625 469.160156 507.714844 353.675781 476.523438 Z M 1083.144531 364.125 L 1083.144531 476.523438 C 967.664062 507.726562 821.015625 567.625 744.734375 679.324219 C 798.289062 484.140625 1017.484375 388.703125 1083.144531 364.125 Z M 1234.78125 571.714844 C 1087.402344 550.625 938.363281 587.8125 816.535156 678.054688 L 750.042969 727.316406 C 845.269531 538.773438 1160.371094 485.703125 1234.78125 475.691406 Z M 1371.746094 604.832031 L 1308.300781 587.125 C 1293.46875 582.996094 1278.578125 579.507812 1263.644531 576.589844 L 1263.644531 459.386719 C 1263.644531 455.316406 1261.921875 451.417969 1258.917969 448.6875 C 1255.914062 445.945312 1251.875 444.617188 1247.847656 444.996094 C 1241.402344 445.625 1185.746094 451.316406 1112.007812 469.136719 L 1112.007812 343.761719 C 1112.007812 339.195312 1109.835938 334.890625 1106.171875 332.160156 C 1102.496094 329.429688 1097.742188 328.597656 1093.367188 329.941406 C 1089.925781 330.992188 788.375 425.863281 718.410156 666.363281 C 648.449219 425.863281 346.894531 330.992188 343.453125 329.941406 C 339.0625 328.597656 334.324219 329.429688 330.648438 332.160156 C 326.988281 334.890625 324.8125 339.195312 324.8125 343.761719 L 324.8125 469.136719 C 251.074219 451.316406 195.433594 445.625 188.988281 444.996094 C 184.902344 444.601562 180.894531 445.945312 177.902344 448.6875 C 174.882812 451.417969 173.175781 455.316406 173.175781 459.386719 L 173.175781 576.601562 C 158.242188 579.523438 143.351562 582.996094 128.519531 587.125 L 65.074219 604.832031 C 58.832031 606.566406 54.515625 612.257812 54.515625 618.738281 L 54.515625 1543.648438 C 54.515625 1548.390625 56.851562 1552.84375 60.757812 1555.542969 C 64.667969 1558.242188 69.65625 1558.839844 74.074219 1557.148438 L 76.800781 1556.113281 C 239.976562 1493.832031 424.179688 1514.542969 569.472656 1611.558594 L 710.402344 1705.65625 C 710.578125 1705.773438 710.78125 1705.859375 710.957031 1705.960938 C 711.175781 1706.09375 711.382812 1706.253906 711.613281 1706.371094 C 711.730469 1706.445312 711.863281 1706.488281 711.992188 1706.546875 C 712.226562 1706.664062 712.445312 1706.765625 712.679688 1706.867188 C 713.074219 1707.027344 713.464844 1707.1875 713.875 1707.320312 C 714.09375 1707.390625 714.3125 1707.464844 714.546875 1707.523438 C 714.996094 1707.65625 715.433594 1707.742188 715.886719 1707.832031 C 716.078125 1707.859375 716.28125 1707.902344 716.472656 1707.933594 C 717.113281 1708.019531 717.769531 1708.078125 718.410156 1708.078125 C 719.066406 1708.078125 719.707031 1708.019531 720.351562 1707.933594 C 720.554688 1707.902344 720.746094 1707.859375 720.949219 1707.832031 C 721.402344 1707.742188 721.839844 1707.65625 722.277344 1707.523438 C 722.507812 1707.464844 722.726562 1707.390625 722.960938 1707.320312 C 723.355469 1707.1875 723.761719 1707.027344 724.140625 1706.867188 C 724.375 1706.765625 724.609375 1706.664062 724.84375 1706.546875 C 724.960938 1706.488281 725.089844 1706.445312 725.222656 1706.371094 C 725.441406 1706.253906 725.644531 1706.109375 725.847656 1705.976562 C 726.039062 1705.859375 726.242188 1705.773438 726.433594 1705.65625 L 867.347656 1611.558594 C 1012.640625 1514.558594 1196.816406 1493.832031 1360.035156 1556.113281 L 1362.730469 1557.148438 C 1367.152344 1558.839844 1372.152344 1558.242188 1376.0625 1555.542969 C 1379.972656 1552.84375 1382.304688 1548.40625 1382.304688 1543.648438 L 1382.304688 618.738281 C 1382.304688 612.257812 1377.988281 606.566406 1371.746094 604.832031 " fill-opacity="1" fill-rule="nonzero"/></g></svg>