<svg xmlns="http://www.w3.org/2000/svg" xmlns:xlink="http://www.w3.org/1999/xlink" width="106" zoomAndPan="magnify" viewBox="0 0 79.5 79.499996" height="106" preserveAspectRatio="xMidYMid meet" version="1.0"><defs><clipPath id="6b4b0c259f"><path d="M 0 0 L 79.003906 0 L 79.003906 79.003906 L 0 79.003906 Z M 0 0 " clip-rule="nonzero"/></clipPath><clipPath id="07cc404085"><path d="M 1.582031 2.191406 L 78.078125 2.191406 L 78.078125 77.191406 L 1.582031 77.191406 Z M 1.582031 2.191406 " clip-rule="nonzero"/></clipPath><clipPath id="b68d087517"><path d="M 39.828125 2.191406 C 18.703125 2.191406 1.582031 18.980469 1.582031 39.691406 C 1.582031 60.402344 18.703125 77.191406 39.828125 77.191406 C 60.953125 77.191406 78.078125 60.402344 78.078125 39.691406 C 78.078125 18.980469 60.953125 2.191406 39.828125 2.191406 " clip-rule="nonzero"/></clipPath><clipPath id="f00bf477cf"><path d="M 5.785156 6.042969 L 74 6.042969 L 74 74 L 5.785156 74 Z M 5.785156 6.042969 " clip-rule="nonzero"/></clipPath><clipPath id="25107de00a"><path d="M 39.671875 6.042969 C 20.957031 6.042969 5.785156 21.132812 5.785156 39.75 C 5.785156 58.367188 20.957031 73.457031 39.671875 73.457031 C 58.386719 73.457031 73.558594 58.367188 73.558594 39.75 C 73.558594 21.132812 58.386719 6.042969 39.671875 6.042969 " clip-rule="nonzero"/></clipPath><clipPath id="921e786b1d"><path d="M 15.441406 17.941406 L 61.941406 17.941406 L 61.941406 64.441406 L 15.441406 64.441406 Z M 15.441406 17.941406 " clip-rule="nonzero"/></clipPath></defs><g clip-path="url(#6b4b0c259f)"><path fill="#ffffff" d="M 0 0 L 79.5 0 L 79.5 79.5 L 0 79.5 Z M 0 0 " fill-opacity="1" fill-rule="nonzero"/><path fill="#ffffff" d="M 0 0 L 79.5 0 L 79.5 79.5 L 0 79.5 Z M 0 0 " fill-opacity="1" fill-rule="nonzero"/></g><g clip-path="url(#07cc404085)"><g clip-path="url(#b68d087517)"><path stroke-linecap="butt" transform="matrix(0.751612, 0, 0, 0.748947, 1.580082, 2.192643)" fill="none" stroke-linejoin="miter" d="M 50.888029 -0.00165149 C 22.781765 -0.00165149 0.00259406 22.415248 0.00259406 50.068668 C 0.00259406 77.722088 22.781765 100.138987 50.888029 100.138987 C 78.994293 100.138987 101.778661 77.722088 101.778661 50.068668 C 101.778661 22.415248 78.994293 -0.00165149 50.888029 -0.00165149 " stroke="#e5d4ff" stroke-width="2" stroke-opacity="1" stroke-miterlimit="4"/></g></g><g clip-path="url(#f00bf477cf)"><g clip-path="url(#25107de00a)"><path fill="#e5d4ff" d="M 5.785156 6.042969 L 73.125 6.042969 L 73.125 73.382812 L 5.785156 73.382812 Z M 5.785156 6.042969 " fill-opacity="1" fill-rule="nonzero"/></g></g><path fill="#100f0d" d="M 36.109375 38.398438 C 36.125 38.441406 36.140625 38.488281 36.15625 38.535156 C 36.257812 38.824219 36.367188 39.148438 36.480469 39.507812 L 37.234375 41.867188 L 34.929688 41.835938 C 34.929688 41.828125 34.933594 41.820312 34.9375 41.816406 C 35.015625 41.578125 35.09375 41.335938 35.167969 41.101562 L 35.96875 38.792969 C 36.019531 38.652344 36.066406 38.519531 36.109375 38.398438 Z M 33.335938 45.171875 C 33.351562 45.171875 33.363281 45.175781 33.375 45.175781 C 33.480469 45.175781 33.589844 45.144531 33.683594 45.09375 C 33.796875 45.035156 33.890625 44.941406 33.988281 44.746094 L 34.527344 43.003906 L 37.660156 43.003906 L 38.121094 44.824219 C 38.152344 44.90625 38.289062 45.175781 38.707031 45.148438 C 39.015625 45.132812 39.234375 44.929688 39.265625 44.636719 C 39.273438 44.589844 39.269531 44.539062 39.257812 44.492188 L 38.824219 42.90625 C 38.855469 42.882812 38.886719 42.859375 38.90625 42.832031 C 38.996094 42.734375 39.042969 42.613281 39.042969 42.476562 C 39.042969 42.359375 39.003906 42.242188 38.929688 42.140625 C 38.855469 42.035156 38.746094 41.964844 38.625 41.925781 C 38.601562 41.921875 38.582031 41.917969 38.5625 41.914062 C 38.441406 41.570312 38.328125 41.234375 38.226562 40.914062 C 38.097656 40.507812 37.972656 40.136719 37.863281 39.800781 C 37.71875 39.335938 37.582031 38.921875 37.453125 38.554688 C 37.324219 38.1875 37.210938 37.871094 37.109375 37.605469 C 36.9375 37.160156 36.652344 36.5625 36.132812 36.5625 C 35.976562 36.5625 35.738281 36.625 35.515625 36.914062 C 35.398438 37.066406 35.277344 37.28125 35.152344 37.570312 C 35.039062 37.832031 34.917969 38.148438 34.789062 38.523438 C 34.667969 38.886719 34.53125 39.296875 34.378906 39.753906 L 33.5625 42.148438 L 32.832031 44.566406 C 32.808594 44.746094 32.863281 44.902344 32.976562 45.011719 C 33.070312 45.109375 33.195312 45.164062 33.335938 45.171875 " fill-opacity="1" fill-rule="nonzero"/><path fill="#100f0d" d="M 40.738281 37.84375 L 41.289062 37.816406 C 41.429688 37.808594 41.554688 37.808594 41.667969 37.808594 L 41.984375 37.808594 C 41.980469 37.921875 41.980469 38.054688 41.976562 38.203125 C 41.96875 38.5625 41.957031 38.972656 41.941406 39.433594 L 41.890625 40.894531 C 41.871094 41.40625 41.855469 41.890625 41.84375 42.347656 C 41.832031 42.800781 41.816406 43.207031 41.796875 43.566406 C 41.789062 43.742188 41.777344 43.894531 41.769531 44.019531 C 41.757812 44.019531 41.742188 44.019531 41.726562 44.019531 L 41.226562 44.019531 C 41.039062 44.019531 40.835938 44.011719 40.601562 44 C 40.410156 44 40.175781 44.121094 40.097656 44.449219 C 40.023438 44.75 40.179688 45.019531 40.480469 45.121094 C 40.519531 45.132812 40.558594 45.140625 40.597656 45.140625 L 43.976562 45.199219 C 44.285156 45.199219 44.515625 44.988281 44.550781 44.675781 C 44.570312 44.476562 44.496094 44.34375 44.433594 44.261719 C 44.363281 44.179688 44.234375 44.078125 43.949219 44.058594 C 43.796875 44.070312 43.648438 44.070312 43.464844 44.058594 C 43.335938 44.058594 43.1875 44.050781 43.023438 44.039062 C 42.992188 44.039062 42.960938 44.035156 42.929688 44.03125 C 42.9375 43.910156 42.945312 43.769531 42.953125 43.609375 C 42.972656 43.242188 42.988281 42.828125 43 42.359375 C 43.011719 41.898438 43.03125 41.410156 43.050781 40.894531 C 43.066406 40.375 43.082031 39.886719 43.097656 39.421875 L 43.128906 38.191406 C 43.132812 38.035156 43.136719 37.898438 43.140625 37.78125 C 43.335938 37.773438 43.535156 37.785156 43.996094 37.824219 C 44.085938 37.824219 44.394531 37.796875 44.53125 37.398438 C 44.601562 37.1875 44.542969 37.03125 44.5 36.957031 C 44.445312 36.859375 44.335938 36.738281 44.085938 36.691406 C 43.894531 36.664062 43.597656 36.640625 43.183594 36.625 C 42.78125 36.609375 42.375 36.609375 41.960938 36.625 C 41.554688 36.640625 41.1875 36.667969 40.867188 36.699219 C 40.566406 36.726562 40.109375 36.773438 40.058594 37.078125 C 39.972656 37.289062 40.023438 37.515625 40.195312 37.675781 C 40.292969 37.769531 40.464844 37.878906 40.738281 37.84375 " fill-opacity="1" fill-rule="nonzero"/><path fill="#100f0d" d="M 46.761719 49.261719 L 30.628906 49.261719 L 30.628906 33.132812 L 46.761719 33.132812 Z M 47.53125 31.589844 L 29.859375 31.589844 C 29.433594 31.589844 29.089844 31.9375 29.089844 32.363281 L 29.089844 50.035156 C 29.089844 50.460938 29.433594 50.804688 29.859375 50.804688 L 47.53125 50.804688 C 47.957031 50.804688 48.300781 50.460938 48.300781 50.035156 L 48.300781 32.363281 C 48.300781 31.9375 47.957031 31.589844 47.53125 31.589844 " fill-opacity="1" fill-rule="nonzero"/><g clip-path="url(#921e786b1d)"><path fill="#100f0d" d="M 50.253906 52.757812 L 27.136719 52.757812 L 27.136719 29.636719 L 50.253906 29.636719 Z M 61.175781 49.261719 L 51.796875 49.261719 L 51.796875 44.914062 L 56.398438 44.914062 C 56.820312 44.914062 57.167969 44.570312 57.167969 44.144531 C 57.167969 43.71875 56.820312 43.371094 56.398438 43.371094 L 51.796875 43.371094 L 51.796875 39.023438 L 61.175781 39.023438 C 61.601562 39.023438 61.949219 38.679688 61.949219 38.25 C 61.949219 37.824219 61.601562 37.480469 61.175781 37.480469 L 51.796875 37.480469 L 51.796875 33.132812 L 56.398438 33.132812 C 56.820312 33.132812 57.167969 32.789062 57.167969 32.363281 C 57.167969 31.9375 56.820312 31.589844 56.398438 31.589844 L 51.796875 31.589844 L 51.796875 28.867188 C 51.796875 28.441406 51.453125 28.097656 51.027344 28.097656 L 48.300781 28.097656 L 48.300781 18.714844 C 48.300781 18.289062 47.957031 17.945312 47.53125 17.945312 C 47.105469 17.945312 46.761719 18.289062 46.761719 18.714844 L 46.761719 28.097656 L 42.410156 28.097656 L 42.410156 23.496094 C 42.410156 23.070312 42.066406 22.726562 41.640625 22.726562 C 41.214844 22.726562 40.871094 23.070312 40.871094 23.496094 L 40.871094 28.097656 L 36.519531 28.097656 L 36.519531 18.714844 C 36.519531 18.289062 36.175781 17.945312 35.75 17.945312 C 35.324219 17.945312 34.980469 18.289062 34.980469 18.714844 L 34.980469 28.097656 L 30.628906 28.097656 L 30.628906 23.496094 C 30.628906 23.070312 30.285156 22.726562 29.859375 22.726562 C 29.433594 22.726562 29.089844 23.070312 29.089844 23.496094 L 29.089844 28.097656 L 26.367188 28.097656 C 25.9375 28.097656 25.59375 28.441406 25.59375 28.867188 L 25.59375 31.589844 L 16.214844 31.589844 C 15.789062 31.589844 15.445312 31.9375 15.445312 32.363281 C 15.445312 32.789062 15.789062 33.132812 16.214844 33.132812 L 25.59375 33.132812 L 25.59375 37.480469 L 20.996094 37.480469 C 20.570312 37.480469 20.226562 37.824219 20.226562 38.25 C 20.226562 38.679688 20.570312 39.023438 20.996094 39.023438 L 25.59375 39.023438 L 25.59375 43.371094 L 16.214844 43.371094 C 15.789062 43.371094 15.445312 43.71875 15.445312 44.144531 C 15.445312 44.570312 15.789062 44.914062 16.214844 44.914062 L 25.59375 44.914062 L 25.59375 49.261719 L 20.996094 49.261719 C 20.570312 49.261719 20.226562 49.605469 20.226562 50.035156 C 20.226562 50.460938 20.570312 50.804688 20.996094 50.804688 L 25.59375 50.804688 L 25.59375 53.527344 C 25.59375 53.953125 25.9375 54.296875 26.367188 54.296875 L 29.089844 54.296875 L 29.089844 63.679688 C 29.089844 64.105469 29.433594 64.449219 29.859375 64.449219 C 30.285156 64.449219 30.628906 64.105469 30.628906 63.679688 L 30.628906 54.296875 L 34.980469 54.296875 L 34.980469 58.898438 C 34.980469 59.324219 35.324219 59.667969 35.75 59.667969 C 36.175781 59.667969 36.519531 59.324219 36.519531 58.898438 L 36.519531 54.296875 L 40.871094 54.296875 L 40.871094 63.679688 C 40.871094 64.105469 41.214844 64.449219 41.640625 64.449219 C 42.066406 64.449219 42.410156 64.105469 42.410156 63.679688 L 42.410156 54.296875 L 46.761719 54.296875 L 46.761719 58.898438 C 46.761719 59.324219 47.105469 59.667969 47.53125 59.667969 C 47.957031 59.667969 48.300781 59.324219 48.300781 58.898438 L 48.300781 54.296875 L 51.027344 54.296875 C 51.453125 54.296875 51.796875 53.953125 51.796875 53.527344 L 51.796875 50.804688 L 61.175781 50.804688 C 61.601562 50.804688 61.949219 50.460938 61.949219 50.035156 C 61.949219 49.605469 61.601562 49.261719 61.175781 49.261719 " fill-opacity="1" fill-rule="nonzero"/></g></svg>