<svg xmlns="http://www.w3.org/2000/svg" xmlns:xlink="http://www.w3.org/1999/xlink" width="106" zoomAndPan="magnify" viewBox="0 0 79.5 79.499996" height="106" preserveAspectRatio="xMidYMid meet" version="1.0"><defs><clipPath id="2e3e723fde"><path d="M 0 0 L 79.003906 0 L 79.003906 79.003906 L 0 79.003906 Z M 0 0 " clip-rule="nonzero"/></clipPath><clipPath id="f07cea198d"><path d="M 1.582031 2.191406 L 78.078125 2.191406 L 78.078125 77.191406 L 1.582031 77.191406 Z M 1.582031 2.191406 " clip-rule="nonzero"/></clipPath><clipPath id="118b3e2ac4"><path d="M 39.828125 2.191406 C 18.703125 2.191406 1.582031 18.980469 1.582031 39.691406 C 1.582031 60.402344 18.703125 77.191406 39.828125 77.191406 C 60.953125 77.191406 78.078125 60.402344 78.078125 39.691406 C 78.078125 18.980469 60.953125 2.191406 39.828125 2.191406 " clip-rule="nonzero"/></clipPath><clipPath id="5d248975b9"><path d="M 5.785156 6.042969 L 74 6.042969 L 74 74 L 5.785156 74 Z M 5.785156 6.042969 " clip-rule="nonzero"/></clipPath><clipPath id="26e549228a"><path d="M 39.671875 6.042969 C 20.957031 6.042969 5.785156 21.132812 5.785156 39.75 C 5.785156 58.367188 20.957031 73.457031 39.671875 73.457031 C 58.386719 73.457031 73.558594 58.367188 73.558594 39.75 C 73.558594 21.132812 58.386719 6.042969 39.671875 6.042969 " clip-rule="nonzero"/></clipPath><clipPath id="ad9c2e1d94"><path d="M 18.066406 18.160156 L 61.566406 18.160156 L 61.566406 61.660156 L 18.066406 61.660156 Z M 18.066406 18.160156 " clip-rule="nonzero"/></clipPath></defs><g clip-path="url(#2e3e723fde)"><path fill="#ffffff" d="M 0 0 L 79.5 0 L 79.5 340.5 L 0 340.5 Z M 0 0 " fill-opacity="1" fill-rule="nonzero"/><path fill="#ffffff" d="M 0 0 L 79.5 0 L 79.5 79.5 L 0 79.5 Z M 0 0 " fill-opacity="1" fill-rule="nonzero"/><path fill="#ffffff" d="M 0 0 L 79.5 0 L 79.5 79.5 L 0 79.5 Z M 0 0 " fill-opacity="1" fill-rule="nonzero"/></g><g clip-path="url(#f07cea198d)"><g clip-path="url(#118b3e2ac4)"><path stroke-linecap="butt" transform="matrix(0.751612, 0, 0, 0.748947, 1.580082, 2.192647)" fill="none" stroke-linejoin="miter" d="M 50.888029 -0.00165728 C 22.781765 -0.00165728 0.00259406 22.415242 0.00259406 50.068662 C 0.00259406 77.722082 22.781765 100.138981 50.888029 100.138981 C 78.994293 100.138981 101.778661 77.722082 101.778661 50.068662 C 101.778661 22.415242 78.994293 -0.00165728 50.888029 -0.00165728 " stroke="#e5d4ff" stroke-width="2" stroke-opacity="1" stroke-miterlimit="4"/></g></g><g clip-path="url(#5d248975b9)"><g clip-path="url(#26e549228a)"><path fill="#e5d4ff" d="M 5.785156 6.042969 L 73.125 6.042969 L 73.125 73.382812 L 5.785156 73.382812 Z M 5.785156 6.042969 " fill-opacity="1" fill-rule="nonzero"/></g></g><g clip-path="url(#ad9c2e1d94)"><path fill="#000000" d="M 56.148438 25.917969 L 48.351562 25.917969 L 48.351562 22.207031 C 48.351562 19.953125 46.523438 18.125 44.269531 18.125 L 35.363281 18.125 C 33.109375 18.125 31.28125 19.953125 31.28125 22.207031 L 31.28125 25.917969 L 23.484375 25.917969 C 20.621094 25.917969 18.289062 28.25 18.289062 31.113281 L 18.289062 56.351562 C 18.289062 59.21875 20.621094 61.550781 23.484375 61.550781 L 56.148438 61.550781 C 59.011719 61.550781 61.34375 59.21875 61.34375 56.351562 L 61.34375 31.113281 C 61.34375 28.25 59.011719 25.917969 56.148438 25.917969 Z M 33.507812 22.207031 C 33.507812 21.183594 34.339844 20.351562 35.363281 20.351562 L 44.269531 20.351562 C 45.292969 20.351562 46.125 21.183594 46.125 22.207031 L 46.125 25.917969 L 33.507812 25.917969 Z M 20.515625 31.113281 C 20.515625 29.476562 21.847656 28.144531 23.484375 28.144531 L 56.148438 28.144531 C 57.785156 28.144531 59.117188 29.476562 59.117188 31.113281 L 59.117188 37.050781 C 59.117188 38.691406 57.785156 40.023438 56.148438 40.023438 L 45.382812 40.023438 L 45.382812 38.835938 C 45.382812 38.054688 44.75 37.421875 43.972656 37.421875 L 37.144531 37.421875 C 36.367188 37.421875 35.734375 38.054688 35.734375 38.835938 L 35.734375 40.023438 L 23.484375 40.023438 C 21.847656 40.023438 20.515625 38.691406 20.515625 37.050781 Z M 37.960938 39.652344 L 43.15625 39.652344 L 43.15625 42.25 C 43.15625 43.679688 41.992188 44.847656 40.558594 44.847656 C 39.125 44.847656 37.960938 43.679688 37.960938 42.25 Z M 56.148438 59.320312 L 23.484375 59.320312 C 21.847656 59.320312 20.515625 57.988281 20.515625 56.351562 L 20.515625 41.304688 C 21.359375 41.894531 22.378906 42.25 23.484375 42.25 L 35.734375 42.25 C 35.734375 44.910156 37.898438 47.074219 40.558594 47.074219 C 43.21875 47.074219 45.382812 44.910156 45.382812 42.25 L 56.148438 42.25 C 57.253906 42.25 58.273438 41.894531 59.117188 41.304688 L 59.117188 56.351562 C 59.117188 57.988281 57.785156 59.320312 56.148438 59.320312 Z M 56.148438 59.320312 " fill-opacity="1" fill-rule="nonzero"/></g></svg>