<svg xmlns="http://www.w3.org/2000/svg" xmlns:xlink="http://www.w3.org/1999/xlink" width="106" zoomAndPan="magnify" viewBox="0 0 79.5 79.499996" height="106" preserveAspectRatio="xMidYMid meet" version="1.0"><defs><clipPath id="f89fc84476"><path d="M 0 0 L 79.003906 0 L 79.003906 79.003906 L 0 79.003906 Z M 0 0 " clip-rule="nonzero"/></clipPath><clipPath id="e77f8a6930"><path d="M 1.582031 2.191406 L 78.078125 2.191406 L 78.078125 77.191406 L 1.582031 77.191406 Z M 1.582031 2.191406 " clip-rule="nonzero"/></clipPath><clipPath id="1c0863f880"><path d="M 39.828125 2.191406 C 18.703125 2.191406 1.582031 18.980469 1.582031 39.691406 C 1.582031 60.402344 18.703125 77.191406 39.828125 77.191406 C 60.953125 77.191406 78.078125 60.402344 78.078125 39.691406 C 78.078125 18.980469 60.953125 2.191406 39.828125 2.191406 " clip-rule="nonzero"/></clipPath><clipPath id="7d1be013b7"><path d="M 5.785156 6.042969 L 74 6.042969 L 74 74 L 5.785156 74 Z M 5.785156 6.042969 " clip-rule="nonzero"/></clipPath><clipPath id="3fc9ec9581"><path d="M 39.671875 6.042969 C 20.957031 6.042969 5.785156 21.132812 5.785156 39.75 C 5.785156 58.367188 20.957031 73.457031 39.671875 73.457031 C 58.386719 73.457031 73.558594 58.367188 73.558594 39.75 C 73.558594 21.132812 58.386719 6.042969 39.671875 6.042969 " clip-rule="nonzero"/></clipPath><clipPath id="fce3ea9443"><path d="M 20.097656 21.28125 L 43 21.28125 L 43 58.03125 L 20.097656 58.03125 Z M 20.097656 21.28125 " clip-rule="nonzero"/></clipPath><clipPath id="97c4e2fb8e"><path d="M 43 25 L 56.097656 25 L 56.097656 54 L 43 54 Z M 43 25 " clip-rule="nonzero"/></clipPath></defs><g clip-path="url(#f89fc84476)"><path fill="#ffffff" d="M 0 0 L 79.5 0 L 79.5 79.5 L 0 79.5 Z M 0 0 " fill-opacity="1" fill-rule="nonzero"/><path fill="#ffffff" d="M 0 0 L 79.5 0 L 79.5 79.5 L 0 79.5 Z M 0 0 " fill-opacity="1" fill-rule="nonzero"/></g><g clip-path="url(#e77f8a6930)"><g clip-path="url(#1c0863f880)"><path stroke-linecap="butt" transform="matrix(0.751612, 0, 0, 0.748947, 1.580082, 2.192643)" fill="none" stroke-linejoin="miter" d="M 50.888029 -0.00165149 C 22.781765 -0.00165149 0.00259406 22.415248 0.00259406 50.068668 C 0.00259406 77.722088 22.781765 100.138987 50.888029 100.138987 C 78.994293 100.138987 101.778661 77.722088 101.778661 50.068668 C 101.778661 22.415248 78.994293 -0.00165149 50.888029 -0.00165149 " stroke="#e5d4ff" stroke-width="2" stroke-opacity="1" stroke-miterlimit="4"/></g></g><g clip-path="url(#7d1be013b7)"><g clip-path="url(#3fc9ec9581)"><path fill="#e5d4ff" d="M 5.785156 6.042969 L 73.125 6.042969 L 73.125 73.382812 L 5.785156 73.382812 Z M 5.785156 6.042969 " fill-opacity="1" fill-rule="nonzero"/></g></g><g clip-path="url(#fce3ea9443)"><path fill="#000000" d="M 41.875 21.449219 C 41.703125 21.308594 41.480469 21.253906 41.265625 21.292969 L 20.699219 25.214844 C 20.351562 25.28125 20.101562 25.582031 20.101562 25.9375 L 20.101562 53.375 C 20.101562 53.730469 20.351562 54.03125 20.699219 54.097656 L 41.265625 58.019531 C 41.3125 58.027344 41.359375 58.03125 41.40625 58.03125 C 41.574219 58.03125 41.738281 57.972656 41.875 57.863281 C 42.042969 57.722656 42.140625 57.515625 42.140625 57.296875 L 42.140625 22.015625 C 42.140625 21.796875 42.042969 21.589844 41.875 21.449219 Z M 33.703125 46.546875 L 31.335938 42.074219 C 31.25 41.90625 31.15625 41.597656 31.058594 41.152344 L 31.023438 41.152344 C 30.976562 41.363281 30.871094 41.683594 30.707031 42.113281 L 28.332031 46.546875 L 24.644531 46.546875 L 29.019531 39.675781 L 25.015625 32.804688 L 28.78125 32.804688 L 30.746094 36.925781 C 30.898438 37.25 31.035156 37.636719 31.15625 38.085938 L 31.195312 38.085938 C 31.269531 37.816406 31.414062 37.417969 31.625 36.886719 L 33.808594 32.804688 L 37.257812 32.804688 L 33.136719 39.621094 L 37.371094 46.546875 Z M 33.703125 46.546875 " fill-opacity="1" fill-rule="nonzero"/></g><g clip-path="url(#97c4e2fb8e)"><path fill="#000000" d="M 54.625 25.691406 L 43.609375 25.691406 L 43.609375 30.835938 L 45.078125 30.835938 L 45.078125 32.304688 L 43.609375 32.304688 L 43.609375 35.980469 L 45.078125 35.980469 L 45.078125 37.449219 L 43.609375 37.449219 L 43.609375 41.125 L 45.078125 41.125 L 45.078125 42.597656 L 43.609375 42.597656 L 43.609375 47.007812 L 45.078125 47.007812 L 45.078125 48.476562 L 43.609375 48.476562 L 43.609375 53.621094 L 54.625 53.621094 C 55.4375 53.621094 56.097656 52.960938 56.097656 52.152344 L 56.097656 27.160156 C 56.097656 26.351562 55.4375 25.691406 54.625 25.691406 Z M 52.421875 48.476562 L 46.546875 48.476562 L 46.546875 47.007812 L 52.421875 47.007812 Z M 52.421875 42.597656 L 46.546875 42.597656 L 46.546875 41.125 L 52.421875 41.125 Z M 52.421875 37.449219 L 46.546875 37.449219 L 46.546875 35.980469 L 52.421875 35.980469 Z M 52.421875 32.304688 L 46.546875 32.304688 L 46.546875 30.835938 L 52.421875 30.835938 Z M 52.421875 32.304688 " fill-opacity="1" fill-rule="nonzero"/></g></svg>