<svg xmlns="http://www.w3.org/2000/svg" xmlns:xlink="http://www.w3.org/1999/xlink" width="106" zoomAndPan="magnify" viewBox="0 0 79.5 79.499996" height="106" preserveAspectRatio="xMidYMid meet" version="1.0"><defs><clipPath id="bdcaab45b4"><path d="M 0 0 L 79.003906 0 L 79.003906 79.003906 L 0 79.003906 Z M 0 0 " clip-rule="nonzero"/></clipPath><clipPath id="f2a6723eab"><path d="M 1.582031 2.191406 L 78.078125 2.191406 L 78.078125 77.191406 L 1.582031 77.191406 Z M 1.582031 2.191406 " clip-rule="nonzero"/></clipPath><clipPath id="1cd747a111"><path d="M 39.828125 2.191406 C 18.703125 2.191406 1.582031 18.980469 1.582031 39.691406 C 1.582031 60.402344 18.703125 77.191406 39.828125 77.191406 C 60.953125 77.191406 78.078125 60.402344 78.078125 39.691406 C 78.078125 18.980469 60.953125 2.191406 39.828125 2.191406 " clip-rule="nonzero"/></clipPath><clipPath id="58877c7eaa"><path d="M 5.785156 6.042969 L 74 6.042969 L 74 74 L 5.785156 74 Z M 5.785156 6.042969 " clip-rule="nonzero"/></clipPath><clipPath id="6f7b61825b"><path d="M 39.671875 6.042969 C 20.957031 6.042969 5.785156 21.132812 5.785156 39.75 C 5.785156 58.367188 20.957031 73.457031 39.671875 73.457031 C 58.386719 73.457031 73.558594 58.367188 73.558594 39.75 C 73.558594 21.132812 58.386719 6.042969 39.671875 6.042969 " clip-rule="nonzero"/></clipPath><clipPath id="16660600c5"><path d="M 31 14.027344 L 49 14.027344 L 49 65.777344 L 31 65.777344 Z M 31 14.027344 " clip-rule="nonzero"/></clipPath><clipPath id="4c9ff81c9a"><path d="M 21 14.027344 L 59 14.027344 L 59 65.777344 L 21 65.777344 Z M 21 14.027344 " clip-rule="nonzero"/></clipPath><clipPath id="af1d5f4355"><path d="M 14.027344 32 L 65.777344 32 L 65.777344 48 L 14.027344 48 Z M 14.027344 32 " clip-rule="nonzero"/></clipPath><clipPath id="6a2bbf949e"><path d="M 14.027344 14.027344 L 65.777344 14.027344 L 65.777344 65.777344 L 14.027344 65.777344 Z M 14.027344 14.027344 " clip-rule="nonzero"/></clipPath></defs><g clip-path="url(#bdcaab45b4)"><path fill="#ffffff" d="M 0 0 L 79.5 0 L 79.5 79.5 L 0 79.5 Z M 0 0 " fill-opacity="1" fill-rule="nonzero"/><path fill="#ffffff" d="M 0 0 L 79.5 0 L 79.5 79.5 L 0 79.5 Z M 0 0 " fill-opacity="1" fill-rule="nonzero"/></g><g clip-path="url(#f2a6723eab)"><g clip-path="url(#1cd747a111)"><path stroke-linecap="butt" transform="matrix(0.751612, 0, 0, 0.748947, 1.580082, 2.192643)" fill="none" stroke-linejoin="miter" d="M 50.888029 -0.00165149 C 22.781765 -0.00165149 0.00259406 22.415248 0.00259406 50.068668 C 0.00259406 77.722088 22.781765 100.138987 50.888029 100.138987 C 78.994293 100.138987 101.778661 77.722088 101.778661 50.068668 C 101.778661 22.415248 78.994293 -0.00165149 50.888029 -0.00165149 " stroke="#e5d4ff" stroke-width="2" stroke-opacity="1" stroke-miterlimit="4"/></g></g><g clip-path="url(#58877c7eaa)"><g clip-path="url(#6f7b61825b)"><path fill="#e5d4ff" d="M 5.785156 6.042969 L 73.125 6.042969 L 73.125 73.382812 L 5.785156 73.382812 Z M 5.785156 6.042969 " fill-opacity="1" fill-rule="nonzero"/></g></g><path fill="#000000" d="M 59.039062 26.003906 L 19.945312 26.003906 C 19.398438 26.003906 18.953125 25.558594 18.953125 25.011719 C 18.953125 24.464844 19.398438 24.019531 19.945312 24.019531 L 59.039062 24.019531 C 59.585938 24.019531 60.03125 24.464844 60.03125 25.011719 C 60.03125 25.558594 59.585938 26.003906 59.039062 26.003906 Z M 59.039062 26.003906 " fill-opacity="1" fill-rule="nonzero"/><path fill="#000000" d="M 59.128906 55.789062 L 20.9375 55.789062 C 20.390625 55.789062 19.945312 55.34375 19.945312 54.796875 C 19.945312 54.25 20.390625 53.804688 20.9375 53.804688 L 59.128906 53.804688 C 59.675781 53.804688 60.121094 54.25 60.121094 54.796875 C 60.121094 55.34375 59.675781 55.789062 59.128906 55.789062 Z M 59.128906 55.789062 " fill-opacity="1" fill-rule="nonzero"/><g clip-path="url(#16660600c5)"><path fill="#000000" d="M 39.898438 65.789062 C 38.421875 65.789062 36.265625 64.789062 34.386719 60.015625 C 33.046875 56.621094 32.101562 52.03125 31.652344 46.746094 C 31.628906 46.46875 31.71875 46.195312 31.910156 45.988281 C 32.09375 45.785156 32.359375 45.667969 32.636719 45.667969 L 47.148438 45.667969 C 47.425781 45.667969 47.691406 45.785156 47.878906 45.988281 C 48.066406 46.195312 48.160156 46.46875 48.136719 46.746094 C 47.6875 52.035156 46.742188 56.625 45.40625 60.015625 C 43.527344 64.789062 41.375 65.789062 39.898438 65.789062 Z M 33.726562 47.652344 C 34.191406 52.246094 35.070312 56.34375 36.230469 59.289062 C 37.363281 62.160156 38.699219 63.804688 39.898438 63.804688 C 41.097656 63.804688 42.429688 62.160156 43.5625 59.289062 C 44.71875 56.347656 45.597656 52.246094 46.0625 47.652344 Z M 47.152344 34.144531 C 47.152344 34.144531 47.152344 34.144531 47.148438 34.144531 L 32.640625 34.144531 C 32.363281 34.144531 32.097656 34.027344 31.910156 33.820312 C 31.722656 33.617188 31.628906 33.34375 31.652344 33.066406 C 32.101562 27.777344 33.046875 23.1875 34.386719 19.792969 C 36.265625 15.019531 38.421875 14.019531 39.898438 14.019531 C 41.375 14.019531 43.527344 15.019531 45.40625 19.792969 C 46.738281 23.167969 47.679688 27.734375 48.132812 32.996094 C 48.140625 33.046875 48.144531 33.097656 48.144531 33.148438 C 48.144531 33.699219 47.699219 34.144531 47.152344 34.144531 Z M 33.726562 32.160156 L 46.0625 32.160156 C 45.597656 27.5625 44.71875 23.460938 43.5625 20.519531 C 42.429688 17.648438 41.097656 16 39.898438 16 C 38.699219 16 37.363281 17.648438 36.230469 20.519531 C 35.070312 23.464844 34.191406 27.566406 33.726562 32.160156 Z M 33.726562 32.160156 " fill-opacity="1" fill-rule="nonzero"/></g><g clip-path="url(#4c9ff81c9a)"><path fill="#000000" d="M 39.898438 65.789062 C 35.582031 65.789062 31.511719 63.902344 28.132812 60.335938 C 24.914062 56.945312 22.546875 52.15625 21.460938 46.859375 C 21.402344 46.566406 21.476562 46.265625 21.664062 46.035156 C 21.851562 45.800781 22.136719 45.667969 22.433594 45.667969 L 57.359375 45.667969 C 57.65625 45.667969 57.9375 45.800781 58.125 46.035156 C 58.316406 46.265625 58.390625 46.566406 58.328125 46.859375 C 57.246094 52.15625 54.875 56.945312 51.660156 60.335938 C 48.277344 63.902344 44.210938 65.789062 39.898438 65.789062 Z M 23.671875 47.652344 C 26.03125 57.222656 32.578125 63.804688 39.898438 63.804688 C 47.210938 63.804688 53.757812 57.222656 56.117188 47.652344 Z M 57.359375 34.144531 L 22.433594 34.144531 C 22.132812 34.144531 21.851562 34.007812 21.664062 33.777344 C 21.476562 33.546875 21.402344 33.242188 21.460938 32.953125 C 22.546875 27.652344 24.914062 22.863281 28.132812 19.472656 C 31.511719 15.90625 35.582031 14.019531 39.898438 14.019531 C 44.210938 14.019531 48.277344 15.90625 51.660156 19.472656 C 54.859375 22.847656 57.222656 27.609375 58.316406 32.878906 C 58.339844 32.964844 58.351562 33.058594 58.351562 33.152344 C 58.351562 33.699219 57.910156 34.144531 57.359375 34.144531 Z M 23.671875 32.160156 L 56.117188 32.160156 C 53.757812 22.585938 47.214844 16.003906 39.898438 16.003906 C 32.578125 16.003906 26.03125 22.585938 23.671875 32.160156 Z M 23.671875 32.160156 " fill-opacity="1" fill-rule="nonzero"/></g><path fill="#000000" d="M 22.710938 37.171875 L 23.445312 39.371094 L 23.460938 39.410156 C 23.570312 39.71875 23.636719 39.964844 23.667969 40.148438 C 23.6875 40.042969 23.714844 39.933594 23.742188 39.816406 C 23.777344 39.703125 23.820312 39.554688 23.878906 39.375 L 24.628906 37.171875 L 26.445312 37.171875 L 24.359375 42.148438 L 23.117188 42.148438 L 22.375 39.898438 C 22.335938 39.769531 22.300781 39.640625 22.269531 39.511719 C 22.238281 39.378906 22.210938 39.25 22.183594 39.125 C 22.148438 39.320312 22.085938 39.570312 21.992188 39.867188 L 21.980469 39.902344 L 21.246094 42.148438 L 20.003906 42.148438 L 17.925781 37.171875 L 19.734375 37.171875 L 20.480469 39.375 C 20.535156 39.535156 20.578125 39.675781 20.613281 39.796875 C 20.644531 39.914062 20.671875 40.03125 20.691406 40.148438 C 20.722656 39.984375 20.785156 39.757812 20.882812 39.464844 C 20.898438 39.425781 20.90625 39.394531 20.914062 39.375 L 21.652344 37.171875 Z M 22.710938 37.171875 " fill-opacity="1" fill-rule="nonzero"/><path fill="#000000" d="M 30.828125 37.171875 L 31.5625 39.371094 L 31.574219 39.410156 C 31.683594 39.71875 31.753906 39.964844 31.78125 40.148438 C 31.800781 40.042969 31.828125 39.933594 31.859375 39.816406 C 31.890625 39.703125 31.9375 39.554688 31.996094 39.375 L 32.742188 37.171875 L 34.5625 37.171875 L 32.472656 42.148438 L 31.230469 42.148438 L 30.492188 39.898438 C 30.453125 39.769531 30.417969 39.640625 30.386719 39.511719 C 30.351562 39.378906 30.324219 39.25 30.296875 39.125 C 30.261719 39.320312 30.199219 39.570312 30.105469 39.867188 L 30.097656 39.902344 L 29.363281 42.148438 L 28.121094 42.148438 L 26.039062 37.171875 L 27.851562 37.171875 L 28.59375 39.375 C 28.648438 39.535156 28.695312 39.675781 28.726562 39.796875 C 28.761719 39.914062 28.785156 40.03125 28.804688 40.148438 C 28.835938 39.984375 28.898438 39.757812 28.996094 39.464844 C 29.011719 39.425781 29.019531 39.394531 29.027344 39.375 L 29.765625 37.171875 Z M 30.828125 37.171875 " fill-opacity="1" fill-rule="nonzero"/><path fill="#000000" d="M 38.945312 37.171875 L 39.675781 39.371094 L 39.691406 39.410156 C 39.800781 39.71875 39.871094 39.964844 39.898438 40.148438 C 39.917969 40.042969 39.941406 39.933594 39.976562 39.816406 C 40.007812 39.703125 40.050781 39.554688 40.109375 39.375 L 40.859375 37.171875 L 42.675781 37.171875 L 40.585938 42.148438 L 39.347656 42.148438 L 38.605469 39.898438 C 38.566406 39.769531 38.53125 39.640625 38.5 39.511719 C 38.46875 39.378906 38.441406 39.25 38.414062 39.125 C 38.378906 39.320312 38.316406 39.570312 38.222656 39.867188 L 38.210938 39.902344 L 37.480469 42.148438 L 36.238281 42.148438 L 34.15625 37.171875 L 35.964844 37.171875 L 36.710938 39.375 C 36.765625 39.535156 36.808594 39.675781 36.84375 39.796875 C 36.875 39.914062 36.902344 40.03125 36.921875 40.148438 C 36.949219 39.984375 37.015625 39.757812 37.113281 39.464844 C 37.128906 39.425781 37.136719 39.394531 37.144531 39.375 L 37.882812 37.171875 Z M 38.945312 37.171875 " fill-opacity="1" fill-rule="nonzero"/><path fill="#000000" d="M 42.335938 41.339844 C 42.335938 41.0625 42.429688 40.828125 42.617188 40.636719 C 42.808594 40.445312 43.042969 40.351562 43.320312 40.351562 C 43.605469 40.351562 43.84375 40.445312 44.035156 40.636719 C 44.226562 40.828125 44.320312 41.0625 44.320312 41.339844 C 44.320312 41.621094 44.226562 41.855469 44.03125 42.050781 C 43.84375 42.246094 43.605469 42.339844 43.320312 42.339844 C 43.042969 42.339844 42.8125 42.246094 42.621094 42.050781 C 42.429688 41.855469 42.335938 41.621094 42.335938 41.339844 Z M 42.335938 41.339844 " fill-opacity="1" fill-rule="nonzero"/><path fill="#000000" d="M 59.9375 42.59375 L 47.046875 42.59375 C 46.5 42.59375 46.058594 42.148438 46.058594 41.601562 C 46.058594 41.054688 46.5 40.609375 47.046875 40.609375 L 59.9375 40.609375 C 60.488281 40.609375 60.929688 41.054688 60.929688 41.601562 C 60.929688 42.148438 60.484375 42.59375 59.9375 42.59375 Z M 59.9375 42.59375 " fill-opacity="1" fill-rule="nonzero"/><g clip-path="url(#af1d5f4355)"><path fill="#000000" d="M 63.863281 47.652344 L 15.929688 47.652344 C 15.484375 47.652344 15.097656 47.355469 14.976562 46.929688 C 14.449219 45.050781 14.132812 43.113281 14.039062 41.164062 C 14.039062 41.148438 14.039062 41.132812 14.039062 41.117188 L 14.039062 38.691406 C 14.039062 38.675781 14.039062 38.660156 14.039062 38.644531 C 14.132812 36.695312 14.449219 34.757812 14.976562 32.882812 C 15.097656 32.453125 15.488281 32.160156 15.929688 32.160156 L 63.863281 32.160156 C 64.308594 32.160156 64.699219 32.453125 64.820312 32.882812 C 65.457031 35.160156 65.78125 37.523438 65.78125 39.90625 C 65.78125 42.285156 65.457031 44.648438 64.820312 46.925781 C 64.699219 47.355469 64.308594 47.652344 63.863281 47.652344 Z M 16.695312 45.667969 L 63.097656 45.667969 C 63.5625 43.789062 63.796875 41.855469 63.796875 39.90625 C 63.796875 37.957031 63.5625 36.019531 63.097656 34.144531 L 16.695312 34.144531 C 16.324219 35.636719 16.097656 37.171875 16.023438 38.714844 L 16.023438 41.09375 C 16.097656 42.636719 16.324219 44.171875 16.695312 45.667969 Z M 16.695312 45.667969 " fill-opacity="1" fill-rule="nonzero"/></g><g clip-path="url(#6a2bbf949e)"><path fill="#000000" d="M 39.898438 65.789062 C 32.980469 65.789062 26.480469 63.097656 21.59375 58.207031 C 16.703125 53.320312 14.011719 46.820312 14.011719 39.90625 C 14.011719 25.632812 25.621094 14.019531 39.898438 14.019531 C 54.167969 14.019531 65.78125 25.632812 65.78125 39.90625 C 65.78125 46.820312 63.085938 53.320312 58.199219 58.207031 C 53.3125 63.097656 46.8125 65.789062 39.898438 65.789062 Z M 39.898438 16.003906 C 26.714844 16.003906 15.992188 26.726562 15.992188 39.90625 C 15.992188 53.085938 26.714844 63.804688 39.898438 63.804688 C 53.074219 63.804688 63.796875 53.085938 63.796875 39.90625 C 63.796875 26.726562 53.074219 16.003906 39.898438 16.003906 Z M 39.898438 16.003906 " fill-opacity="1" fill-rule="nonzero"/></g></svg>