<svg xmlns="http://www.w3.org/2000/svg" xmlns:xlink="http://www.w3.org/1999/xlink" width="40" zoomAndPan="magnify" viewBox="0 0 30 30.000001" height="40" preserveAspectRatio="xMidYMid meet" version="1.0"><defs><clipPath id="edf34482b8"><path d="M 13.546875 4.527344 L 16.730469 4.527344 L 16.730469 7.550781 L 13.546875 7.550781 Z M 13.546875 4.527344 " clip-rule="nonzero"/></clipPath><clipPath id="4a04e5595c"><path d="M 15.183594 4.578125 L 15.625 5.472656 C 15.628906 5.492188 15.644531 5.5 15.664062 5.503906 L 16.652344 5.648438 C 16.695312 5.652344 16.710938 5.707031 16.679688 5.738281 L 15.964844 6.433594 C 15.953125 6.445312 15.949219 6.460938 15.949219 6.480469 L 16.117188 7.464844 C 16.125 7.507812 16.082031 7.542969 16.042969 7.523438 L 15.15625 7.054688 C 15.140625 7.046875 15.125 7.046875 15.109375 7.054688 L 14.222656 7.523438 C 14.183594 7.542969 14.140625 7.507812 14.148438 7.464844 L 14.316406 6.480469 C 14.316406 6.460938 14.3125 6.445312 14.300781 6.433594 L 13.585938 5.738281 C 13.554688 5.707031 13.574219 5.652344 13.617188 5.648438 L 14.605469 5.503906 C 14.621094 5.5 14.636719 5.492188 14.644531 5.472656 L 15.085938 4.578125 C 15.105469 4.539062 15.160156 4.539062 15.183594 4.578125 Z M 15.183594 4.578125 " clip-rule="nonzero"/></clipPath><clipPath id="559e6ad57c"><path d="M 18.136719 6.023438 L 20.40625 6.023438 L 20.40625 8.183594 L 18.136719 8.183594 Z M 18.136719 6.023438 " clip-rule="nonzero"/></clipPath><clipPath id="7f87cca862"><path d="M 19.300781 6.058594 L 19.617188 6.699219 C 19.621094 6.710938 19.632812 6.71875 19.644531 6.71875 L 20.351562 6.824219 C 20.382812 6.828125 20.394531 6.867188 20.371094 6.886719 L 19.859375 7.382812 C 19.851562 7.394531 19.847656 7.40625 19.851562 7.417969 L 19.96875 8.121094 C 19.976562 8.152344 19.941406 8.175781 19.914062 8.164062 L 19.285156 7.828125 C 19.273438 7.824219 19.257812 7.824219 19.25 7.828125 L 18.617188 8.164062 C 18.589844 8.175781 18.558594 8.152344 18.5625 8.121094 L 18.683594 7.417969 C 18.683594 7.40625 18.679688 7.394531 18.671875 7.382812 L 18.160156 6.886719 C 18.140625 6.863281 18.152344 6.828125 18.183594 6.824219 L 18.886719 6.71875 C 18.902344 6.71875 18.910156 6.710938 18.917969 6.699219 L 19.230469 6.058594 C 19.246094 6.03125 19.285156 6.03125 19.300781 6.058594 Z M 19.300781 6.058594 " clip-rule="nonzero"/></clipPath><clipPath id="911aaea486"><path d="M 9.601562 6.023438 L 11.871094 6.023438 L 11.871094 8.183594 L 9.601562 8.183594 Z M 9.601562 6.023438 " clip-rule="nonzero"/></clipPath><clipPath id="9322fa81ef"><path d="M 10.765625 6.058594 L 11.082031 6.699219 C 11.085938 6.710938 11.097656 6.71875 11.109375 6.71875 L 11.816406 6.824219 C 11.847656 6.828125 11.859375 6.867188 11.835938 6.886719 L 11.324219 7.382812 C 11.316406 7.394531 11.3125 7.40625 11.316406 7.417969 L 11.433594 8.121094 C 11.441406 8.152344 11.40625 8.175781 11.378906 8.164062 L 10.75 7.828125 C 10.738281 7.824219 10.722656 7.824219 10.714844 7.828125 L 10.082031 8.164062 C 10.054688 8.175781 10.023438 8.152344 10.027344 8.121094 L 10.148438 7.417969 C 10.148438 7.40625 10.144531 7.394531 10.136719 7.382812 L 9.625 6.886719 C 9.605469 6.863281 9.617188 6.828125 9.648438 6.824219 L 10.351562 6.71875 C 10.367188 6.71875 10.375 6.710938 10.382812 6.699219 L 10.695312 6.058594 C 10.710938 6.03125 10.75 6.03125 10.765625 6.058594 Z M 10.765625 6.058594 " clip-rule="nonzero"/></clipPath><clipPath id="5792e1bc09"><path d="M 0.484375 11.207031 L 29.445312 11.207031 L 29.445312 21.222656 L 0.484375 21.222656 Z M 0.484375 11.207031 " clip-rule="nonzero"/></clipPath></defs><g clip-path="url(#edf34482b8)"><g clip-path="url(#4a04e5595c)"><path fill="#125295" d="M 13.570312 4.550781 L 16.707031 4.550781 L 16.707031 7.527344 L 13.570312 7.527344 Z M 13.570312 4.550781 " fill-opacity="1" fill-rule="nonzero"/></g></g><g clip-path="url(#559e6ad57c)"><g clip-path="url(#7f87cca862)"><path fill="#125295" d="M 18.152344 6.039062 L 20.390625 6.039062 L 20.390625 8.167969 L 18.152344 8.167969 Z M 18.152344 6.039062 " fill-opacity="1" fill-rule="nonzero"/></g></g><g clip-path="url(#911aaea486)"><g clip-path="url(#9322fa81ef)"><path fill="#125295" d="M 9.617188 6.039062 L 11.855469 6.039062 L 11.855469 8.167969 L 9.617188 8.167969 Z M 9.617188 6.039062 " fill-opacity="1" fill-rule="nonzero"/></g></g><g clip-path="url(#5792e1bc09)"><path fill="#cd9832" d="M 28.792969 37.214844 C 25.140625 35.953125 21.082031 36.46875 17.859375 38.621094 L 15.28125 40.34375 L 15.28125 20.949219 L 17.476562 19.324219 C 20.082031 17.394531 23.292969 16.636719 26.441406 17.175781 C 26.460938 17.179688 26.476562 17.183594 26.496094 17.1875 C 26.878906 17.253906 27.261719 17.339844 27.640625 17.445312 L 28.792969 17.765625 Z M 5.183594 36.535156 C 3.820312 36.535156 2.453125 36.761719 1.140625 37.214844 L 1.140625 17.765625 L 2.289062 17.445312 C 2.671875 17.339844 3.054688 17.253906 3.4375 17.1875 C 3.453125 17.183594 3.46875 17.179688 3.484375 17.175781 C 6.636719 16.636719 9.847656 17.390625 12.453125 19.324219 L 14.652344 20.949219 L 14.652344 40.34375 L 12.070312 38.621094 C 10.007812 37.242188 7.605469 36.535156 5.183594 36.535156 Z M 3.722656 14.410156 C 5.34375 14.628906 12.203125 15.785156 14.277344 19.890625 L 12.828125 18.816406 C 10.175781 16.851562 6.929688 16.042969 3.722656 16.503906 Z M 7.023438 11.984375 C 8.453125 12.519531 13.226562 14.597656 14.390625 18.847656 C 12.730469 16.414062 9.539062 15.109375 7.023438 14.429688 Z M 22.90625 11.984375 L 22.90625 14.429688 C 20.390625 15.109375 17.199219 16.414062 15.539062 18.847656 C 16.703125 14.597656 21.476562 12.519531 22.90625 11.984375 Z M 26.207031 16.503906 C 23 16.042969 19.753906 16.851562 17.101562 18.816406 L 15.652344 19.890625 C 17.726562 15.785156 24.589844 14.628906 26.207031 14.410156 Z M 29.191406 17.222656 L 27.808594 16.839844 C 27.484375 16.75 27.160156 16.671875 26.835938 16.609375 L 26.835938 14.058594 C 26.835938 13.96875 26.800781 13.882812 26.734375 13.824219 C 26.667969 13.765625 26.582031 13.734375 26.492188 13.742188 C 26.351562 13.757812 25.140625 13.882812 23.535156 14.269531 L 23.535156 11.539062 C 23.535156 11.441406 23.488281 11.347656 23.410156 11.285156 C 23.328125 11.226562 23.226562 11.210938 23.128906 11.238281 C 23.054688 11.261719 16.488281 13.328125 14.964844 18.5625 C 13.441406 13.328125 6.875 11.261719 6.800781 11.238281 C 6.707031 11.210938 6.601562 11.226562 6.523438 11.285156 C 6.441406 11.347656 6.394531 11.441406 6.394531 11.539062 L 6.394531 14.269531 C 4.789062 13.882812 3.578125 13.757812 3.4375 13.742188 C 3.347656 13.734375 3.261719 13.765625 3.195312 13.824219 C 3.132812 13.882812 3.09375 13.96875 3.09375 14.058594 L 3.09375 16.609375 C 2.769531 16.671875 2.445312 16.75 2.121094 16.839844 L 0.738281 17.222656 C 0.605469 17.261719 0.511719 17.386719 0.511719 17.527344 L 0.511719 37.664062 C 0.511719 37.769531 0.5625 37.863281 0.644531 37.921875 C 0.730469 37.984375 0.839844 37.996094 0.9375 37.957031 L 0.996094 37.9375 C 4.546875 36.582031 8.558594 37.03125 11.722656 39.144531 L 14.792969 41.191406 C 14.792969 41.195312 14.800781 41.195312 14.804688 41.199219 C 14.808594 41.203125 14.8125 41.207031 14.816406 41.207031 C 14.820312 41.210938 14.824219 41.210938 14.824219 41.210938 C 14.832031 41.214844 14.835938 41.214844 14.839844 41.21875 C 14.847656 41.222656 14.859375 41.226562 14.867188 41.226562 C 14.871094 41.230469 14.875 41.230469 14.882812 41.234375 C 14.890625 41.234375 14.902344 41.238281 14.910156 41.238281 C 14.914062 41.238281 14.917969 41.242188 14.921875 41.242188 C 14.9375 41.242188 14.953125 41.246094 14.964844 41.246094 C 14.980469 41.246094 14.992188 41.242188 15.007812 41.242188 C 15.011719 41.242188 15.015625 41.238281 15.019531 41.238281 C 15.03125 41.238281 15.039062 41.234375 15.050781 41.234375 C 15.054688 41.230469 15.058594 41.230469 15.066406 41.226562 C 15.074219 41.226562 15.082031 41.222656 15.089844 41.21875 C 15.09375 41.214844 15.101562 41.214844 15.105469 41.210938 C 15.109375 41.210938 15.109375 41.210938 15.113281 41.207031 C 15.117188 41.207031 15.121094 41.203125 15.128906 41.199219 C 15.132812 41.195312 15.136719 41.195312 15.140625 41.191406 L 18.207031 39.144531 C 21.371094 37.03125 25.382812 36.582031 28.9375 37.9375 L 28.996094 37.957031 C 29.089844 37.996094 29.199219 37.984375 29.285156 37.921875 C 29.371094 37.863281 29.421875 37.769531 29.421875 37.664062 L 29.421875 17.527344 C 29.421875 17.386719 29.328125 17.261719 29.191406 17.222656 " fill-opacity="1" fill-rule="nonzero"/></g></svg>